<?xml version="1.0" encoding="utf-8"?>
<!-- Generator: Adobe Illustrator 27.9.0, SVG Export Plug-In . SVG Version: 6.00 Build 0)  -->
<svg version="1.1" xmlns="http://www.w3.org/2000/svg" xmlns:xlink="http://www.w3.org/1999/xlink" x="0px" y="0px"
	 viewBox="0 0 1920 1080" style="enable-background:new 0 0 1920 1080;" xml:space="preserve">
<style type="text/css">
	.st0{display:none;}
	.st1{display:inline;fill:#B4ED00;}
	.st2{display:inline;}
	.st3{fill:#EFEFEF;}
	.st4{fill:#B4ED00;}
	.st5{fill:#202020;}
	.st6{display:inline;fill:#FFFFFF;}
	.st7{fill:#FFFFFF;}
</style>
<g id="Normal" class="st0">
	<path class="st1" d="M218.77,743.3L141.1,626.8c-1.77-2.66-1.89-6.09-0.31-8.86l162.4-284.2c2.25-3.94,6.44-6.37,10.98-6.37h132.23
		c12.95,0,21.06,13.99,14.64,25.23L309.42,617.94c-1.58,2.77-1.47,6.2,0.31,8.86l63.95,95.92c7.47,11.21-0.56,26.22-14.03,26.22
		H229.29C225.06,748.93,221.11,746.82,218.77,743.3z"/>
	<circle class="st1" cx="433.31" cy="622.46" r="63.24"/>
	<g class="st2">
		<path class="st3" d="M567.51,739.96V548.44c0-5.14,4.17-9.31,9.31-9.31h131.76c3.08,0,5.58,2.5,5.58,5.58v26.92
			c0,3.08-2.5,5.58-5.58,5.58H612.6v45.24h83.43c3.08,0,5.58,2.5,5.58,5.58v26.92c0,3.08-2.5,5.58-5.58,5.58H612.6v79.42
			c0,5.14-4.17,9.31-9.31,9.31h-26.48C571.68,749.27,567.51,745.1,567.51,739.96z"/>
		<path class="st3" d="M763.92,572.85c-8.66,0-15.61-2.63-20.87-7.88c-5.25-5.25-7.88-12.21-7.88-20.87
			c0-8.75,2.63-15.73,7.88-20.94c5.25-5.2,12.21-7.81,20.87-7.81c8.76,0,15.73,2.6,20.94,7.81c5.2,5.21,7.81,12.18,7.81,20.94
			c0,8.66-2.6,15.61-7.81,20.87C779.66,570.22,772.68,572.85,763.92,572.85z M742.18,743.57v-146.2c0-3.15,2.55-5.7,5.7-5.7h32.09
			c3.15,0,5.7,2.55,5.7,5.7v146.2c0,3.15-2.55,5.7-5.7,5.7h-32.09C744.73,749.27,742.18,746.72,742.18,743.57z"/>
		<path class="st3" d="M872.34,749.27c-11.67,0-20.65-2.85-26.92-8.54c-6.27-5.69-9.41-13.89-9.41-24.59v-92.66h-16.89
			c-3.08,0-5.58-2.5-5.58-5.58v-20.64c0-3.08,2.5-5.58,5.58-5.58h16.89v-26.54c0-2.58,1.77-4.82,4.27-5.43l32.32-7.81
			c3.51-0.85,6.89,1.81,6.89,5.43v34.35h23.6c3.08,0,5.58,2.5,5.58,5.58v20.64c0,3.08-2.5,5.58-5.58,5.58h-23.6v85.8
			c0,3.21,0.46,5.38,1.39,6.49c0.92,1.12,2.89,1.68,5.91,1.68h18.49c3.08,0,5.58,2.5,5.58,5.58v20.65c0,3.08-2.5,5.58-5.58,5.58
			H872.34z"/>
		<path class="st4" d="M941.36,743.59V544.82c0-3.14,2.54-5.68,5.68-5.68h33.73c3.14,0,5.68,2.54,5.68,5.68V705.5
			c0,3.14,2.54,5.68,5.68,5.68h89.92c3.14,0,5.68,2.54,5.68,5.68v26.73c0,3.14-2.54,5.68-5.68,5.68H947.04
			C943.91,749.27,941.36,746.73,941.36,743.59z"/>
		<path class="st4" d="M1177.32,753.06c-15.86,0-29.84-3.5-41.95-10.51c-12.11-7-21.57-16.71-28.38-29.11
			c-6.81-12.4-10.22-26.73-10.22-42.97c0-16.34,3.4-30.72,10.22-43.12c6.81-12.4,16.27-22.08,28.38-29.04
			c12.11-6.95,26.09-10.43,41.95-10.43c15.95,0,29.99,3.48,42.1,10.43c12.11,6.96,21.57,16.63,28.38,29.04
			c6.81,12.4,10.21,26.78,10.21,43.12s-3.41,30.72-10.21,43.12c-6.81,12.4-16.3,22.08-28.46,29.04
			C1207.18,749.58,1193.18,753.06,1177.32,753.06z M1177.47,721.1c10.8,0,19.33-4.55,25.61-13.64c6.27-9.1,9.41-21.43,9.41-36.99
			c0-15.66-3.14-28.02-9.41-37.06c-6.28-9.05-14.86-13.57-25.75-13.57c-10.8,0-19.34,4.52-25.61,13.57
			c-6.28,9.05-9.41,21.4-9.41,37.06c0,15.66,3.14,28.02,9.41,37.06C1157.98,716.58,1166.57,721.1,1177.47,721.1z"/>
		<path class="st4" d="M1362.93,753.06c-16.54,0-30.86-3.36-42.97-10.07c-12.11-6.71-21.43-16.25-27.94-28.6
			c-6.52-12.35-9.78-27.04-9.78-44.07c0-16.93,3.26-31.57,9.78-43.92c6.52-12.35,15.81-21.86,27.87-28.53
			c12.06-6.66,26.36-9.99,42.9-9.99c11.87,0,22.91,2.14,33.12,6.42c10.22,4.28,18.9,10.63,26.05,19.04
			c5.96,7.02,10.35,15.44,13.17,25.26c0.93,3.26-1.17,6.61-4.49,7.32l-29.46,6.27c-3.04,0.65-6.12-1.15-6.92-4.16
			c-2.27-8.54-5.75-15.14-10.45-19.8c-5.64-5.59-12.75-8.39-21.3-8.39c-11.77,0-20.5,4.67-26.19,14.01
			c-5.69,9.34-8.54,21.69-8.54,37.06c0,15.27,2.82,27.46,8.46,36.55c5.64,9.1,14.44,13.64,26.41,13.64c8.27,0,15.25-2.5,20.94-7.52
			c4.74-4.17,8.42-10.19,11.04-18.05c0.93-2.79,3.71-4.51,6.6-3.97l28.53,5.33c3.48,0.65,5.56,4.17,4.57,7.57
			c-2,6.87-4.83,12.97-8.49,18.31c-4.77,6.96-10.48,12.65-17.15,17.07c-6.66,4.43-13.89,7.73-21.67,9.92
			C1379.23,751.97,1371.2,753.06,1362.93,753.06z"/>
		<path class="st4" d="M1516.01,753.06c-12.16,0-22.16-2.77-29.99-8.32c-7.83-5.54-13.64-13.23-17.44-23.06
			c-3.79-9.82-5.69-21.16-5.69-34v-90.35c0-3.13,2.54-5.66,5.66-5.66h32.16c3.13,0,5.66,2.54,5.66,5.66v85.25
			c0,12.74,2.19,22.2,6.57,28.38c4.38,6.18,11.19,9.27,20.43,9.27c5.45,0,10.63-1.43,15.54-4.3c4.91-2.87,8.93-7.66,12.04-14.37
			c3.11-6.71,4.67-15.86,4.67-27.43v-76.78c0-3.13,2.54-5.66,5.66-5.66h32.16c3.13,0,5.66,2.54,5.66,5.66V743.6
			c0,3.13-2.54,5.66-5.66,5.66h-30.7c-3.13,0-5.66-2.54-5.66-5.66v-31.25l0.75,4.72c0.18,1.11,0.03,2.26-0.44,3.27
			c-4.63,9.95-11.13,17.82-19.5,23.6C1539.08,750.02,1528.46,753.06,1516.01,753.06z"/>
		<path class="st4" d="M1711.1,753.06c-11.87,0-23.06-1.73-33.56-5.18c-10.51-3.45-19.36-8.83-26.56-16.12
			c-6-6.08-10.18-13.68-12.53-22.8c-0.79-3.06,1.25-6.14,4.35-6.75l28.49-5.66c2.97-0.59,5.84,1.3,6.52,4.25
			c1.45,6.24,4.3,11.14,8.54,14.69c5.4,4.52,13.11,6.79,23.13,6.79c9.63,0,16.78-1.92,21.45-5.76c4.67-3.84,7-8.34,7-13.5
			c0-4.57-1.82-8.51-5.47-11.82c-3.65-3.31-9.95-5.64-18.9-7l-14.3-2.33c-5.64-0.88-11.65-2.07-18.02-3.58
			c-6.37-1.51-12.38-3.79-18.02-6.86c-5.64-3.06-10.26-7.32-13.86-12.77c-3.6-5.45-5.4-12.45-5.4-21.01
			c0-10.41,2.8-19.33,8.39-26.78c5.59-7.44,13.35-13.13,23.27-17.07c9.92-3.94,21.25-5.91,34-5.91c11.77,0,22.52,1.73,32.25,5.18
			c9.73,3.45,17.88,8.51,24.44,15.18c5.19,5.26,8.93,11.51,11.23,18.74c1.01,3.16-0.96,6.5-4.21,7.17l-28.68,5.9
			c-2.81,0.58-5.59-1.07-6.45-3.81c-0.69-2.2-1.59-4.31-2.69-6.35c-1.9-3.5-4.79-6.35-8.68-8.54c-3.89-2.19-9.15-3.28-15.76-3.28
			c-7.49,0-13.45,1.46-17.88,4.38c-4.43,2.92-6.64,6.91-6.64,11.97c0,3.7,1.24,6.71,3.72,9.05c2.48,2.33,5.88,4.21,10.22,5.62
			c4.33,1.41,9.22,2.6,14.66,3.57l16.34,2.77c8.37,1.36,16.32,3.72,23.86,7.08c7.54,3.36,13.69,8.15,18.46,14.37
			c4.77,6.23,7.15,14.4,7.15,24.51c0,11.19-3.04,20.63-9.12,28.31c-6.08,7.69-14.4,13.5-24.95,17.44
			C1736.37,751.09,1724.43,753.06,1711.1,753.06z"/>
	</g>
</g>
<g id="Secundária" class="st0">
	<path class="st1" d="M218.77,745.3L141.1,628.8c-1.77-2.66-1.89-6.09-0.31-8.86l162.4-284.2c2.25-3.94,6.44-6.37,10.98-6.37h132.23
		c12.95,0,21.06,13.99,14.64,25.23L309.42,619.94c-1.58,2.77-1.47,6.2,0.31,8.86l63.95,95.92c7.47,11.21-0.56,26.22-14.03,26.22
		H229.29C225.06,750.93,221.11,748.82,218.77,745.3z"/>
	<circle class="st1" cx="433.31" cy="624.46" r="63.24"/>
	<g class="st2">
		<path class="st5" d="M567.51,741.96V550.44c0-5.14,4.17-9.31,9.31-9.31h131.76c3.08,0,5.58,2.5,5.58,5.58v26.92
			c0,3.08-2.5,5.58-5.58,5.58H612.6v45.24h83.43c3.08,0,5.58,2.5,5.58,5.58v26.92c0,3.08-2.5,5.58-5.58,5.58H612.6v79.42
			c0,5.14-4.17,9.31-9.31,9.31h-26.48C571.68,751.27,567.51,747.1,567.51,741.96z"/>
		<path class="st5" d="M763.92,574.85c-8.66,0-15.61-2.63-20.87-7.88c-5.25-5.25-7.88-12.21-7.88-20.87
			c0-8.75,2.63-15.73,7.88-20.94c5.25-5.2,12.21-7.81,20.87-7.81c8.76,0,15.73,2.6,20.94,7.81c5.2,5.21,7.81,12.18,7.81,20.94
			c0,8.66-2.6,15.61-7.81,20.87C779.66,572.22,772.68,574.85,763.92,574.85z M742.18,745.57v-146.2c0-3.15,2.55-5.7,5.7-5.7h32.09
			c3.15,0,5.7,2.55,5.7,5.7v146.2c0,3.15-2.55,5.7-5.7,5.7h-32.09C744.73,751.27,742.18,748.72,742.18,745.57z"/>
		<path class="st5" d="M872.34,751.27c-11.67,0-20.65-2.85-26.92-8.54c-6.27-5.69-9.41-13.89-9.41-24.59v-92.66h-16.89
			c-3.08,0-5.58-2.5-5.58-5.58v-20.64c0-3.08,2.5-5.58,5.58-5.58h16.89v-26.54c0-2.58,1.77-4.82,4.27-5.43l32.32-7.81
			c3.51-0.85,6.89,1.81,6.89,5.43v34.35h23.6c3.08,0,5.58,2.5,5.58,5.58v20.64c0,3.08-2.5,5.58-5.58,5.58h-23.6v85.8
			c0,3.21,0.46,5.38,1.39,6.49c0.92,1.12,2.89,1.68,5.91,1.68h18.49c3.08,0,5.58,2.5,5.58,5.58v20.65c0,3.08-2.5,5.58-5.58,5.58
			H872.34z"/>
		<path class="st4" d="M941.36,745.59V546.82c0-3.14,2.54-5.68,5.68-5.68h33.73c3.14,0,5.68,2.54,5.68,5.68V707.5
			c0,3.14,2.54,5.68,5.68,5.68h89.92c3.14,0,5.68,2.54,5.68,5.68v26.73c0,3.14-2.54,5.68-5.68,5.68H947.04
			C943.91,751.27,941.36,748.73,941.36,745.59z"/>
		<path class="st4" d="M1177.32,755.06c-15.86,0-29.84-3.5-41.95-10.51c-12.11-7-21.57-16.71-28.38-29.11
			c-6.81-12.4-10.22-26.73-10.22-42.97c0-16.34,3.4-30.72,10.22-43.12c6.81-12.4,16.27-22.08,28.38-29.04
			c12.11-6.95,26.09-10.43,41.95-10.43c15.95,0,29.99,3.48,42.1,10.43c12.11,6.96,21.57,16.63,28.38,29.04
			c6.81,12.4,10.21,26.78,10.21,43.12s-3.41,30.72-10.21,43.12c-6.81,12.4-16.3,22.08-28.46,29.04
			C1207.18,751.58,1193.18,755.06,1177.32,755.06z M1177.47,723.1c10.8,0,19.33-4.55,25.61-13.64c6.27-9.1,9.41-21.43,9.41-36.99
			c0-15.66-3.14-28.02-9.41-37.06c-6.28-9.05-14.86-13.57-25.75-13.57c-10.8,0-19.34,4.52-25.61,13.57
			c-6.28,9.05-9.41,21.4-9.41,37.06c0,15.66,3.14,28.02,9.41,37.06C1157.98,718.58,1166.57,723.1,1177.47,723.1z"/>
		<path class="st4" d="M1362.93,755.06c-16.54,0-30.86-3.36-42.97-10.07c-12.11-6.71-21.43-16.25-27.94-28.6
			c-6.52-12.35-9.78-27.04-9.78-44.07c0-16.93,3.26-31.57,9.78-43.92c6.52-12.35,15.81-21.86,27.87-28.53
			c12.06-6.66,26.36-9.99,42.9-9.99c11.87,0,22.91,2.14,33.12,6.42c10.22,4.28,18.9,10.63,26.05,19.04
			c5.96,7.02,10.35,15.44,13.17,25.26c0.93,3.26-1.17,6.61-4.49,7.32l-29.46,6.27c-3.04,0.65-6.12-1.15-6.92-4.16
			c-2.27-8.54-5.75-15.14-10.45-19.8c-5.64-5.59-12.75-8.39-21.3-8.39c-11.77,0-20.5,4.67-26.19,14.01
			c-5.69,9.34-8.54,21.69-8.54,37.06c0,15.27,2.82,27.46,8.46,36.55c5.64,9.1,14.44,13.64,26.41,13.64c8.27,0,15.25-2.5,20.94-7.52
			c4.74-4.17,8.42-10.19,11.04-18.05c0.93-2.79,3.71-4.51,6.6-3.97l28.53,5.33c3.48,0.65,5.56,4.17,4.57,7.57
			c-2,6.87-4.83,12.97-8.49,18.31c-4.77,6.96-10.48,12.65-17.15,17.07c-6.66,4.43-13.89,7.73-21.67,9.92
			C1379.23,753.97,1371.2,755.06,1362.93,755.06z"/>
		<path class="st4" d="M1516.01,755.06c-12.16,0-22.16-2.77-29.99-8.32c-7.83-5.54-13.64-13.23-17.44-23.06
			c-3.79-9.82-5.69-21.16-5.69-34v-90.35c0-3.13,2.54-5.66,5.66-5.66h32.16c3.13,0,5.66,2.54,5.66,5.66v85.25
			c0,12.74,2.19,22.2,6.57,28.38c4.38,6.18,11.19,9.27,20.43,9.27c5.45,0,10.63-1.43,15.54-4.3c4.91-2.87,8.93-7.66,12.04-14.37
			c3.11-6.71,4.67-15.86,4.67-27.43v-76.78c0-3.13,2.54-5.66,5.66-5.66h32.16c3.13,0,5.66,2.54,5.66,5.66V745.6
			c0,3.13-2.54,5.66-5.66,5.66h-30.7c-3.13,0-5.66-2.54-5.66-5.66v-31.25l0.75,4.72c0.18,1.11,0.03,2.26-0.44,3.27
			c-4.63,9.95-11.13,17.82-19.5,23.6C1539.08,752.02,1528.46,755.06,1516.01,755.06z"/>
		<path class="st4" d="M1711.1,755.06c-11.87,0-23.06-1.73-33.56-5.18c-10.51-3.45-19.36-8.83-26.56-16.12
			c-6-6.08-10.18-13.68-12.53-22.8c-0.79-3.06,1.25-6.14,4.35-6.75l28.49-5.66c2.97-0.59,5.84,1.3,6.52,4.25
			c1.45,6.24,4.3,11.14,8.54,14.69c5.4,4.52,13.11,6.79,23.13,6.79c9.63,0,16.78-1.92,21.45-5.76c4.67-3.84,7-8.34,7-13.5
			c0-4.57-1.82-8.51-5.47-11.82c-3.65-3.31-9.95-5.64-18.9-7l-14.3-2.33c-5.64-0.88-11.65-2.07-18.02-3.58
			c-6.37-1.51-12.38-3.79-18.02-6.86c-5.64-3.06-10.26-7.32-13.86-12.77c-3.6-5.45-5.4-12.45-5.4-21.01
			c0-10.41,2.8-19.33,8.39-26.78c5.59-7.44,13.35-13.13,23.27-17.07c9.92-3.94,21.25-5.91,34-5.91c11.77,0,22.52,1.73,32.25,5.18
			c9.73,3.45,17.88,8.51,24.44,15.18c5.19,5.26,8.93,11.51,11.23,18.74c1.01,3.16-0.96,6.5-4.21,7.17l-28.68,5.9
			c-2.81,0.58-5.59-1.07-6.45-3.81c-0.69-2.2-1.59-4.31-2.69-6.35c-1.9-3.5-4.79-6.35-8.68-8.54c-3.89-2.19-9.15-3.28-15.76-3.28
			c-7.49,0-13.45,1.46-17.88,4.38c-4.43,2.92-6.64,6.91-6.64,11.97c0,3.7,1.24,6.71,3.72,9.05c2.48,2.33,5.88,4.21,10.22,5.62
			c4.33,1.41,9.22,2.6,14.66,3.57l16.34,2.77c8.37,1.36,16.32,3.72,23.86,7.08c7.54,3.36,13.69,8.15,18.46,14.37
			c4.77,6.23,7.15,14.4,7.15,24.51c0,11.19-3.04,20.63-9.12,28.31c-6.08,7.69-14.4,13.5-24.95,17.44
			C1736.37,753.09,1724.43,755.06,1711.1,755.06z"/>
	</g>
</g>
<g id="Preto" class="st0">
	<path class="st2" d="M218.77,743.3L141.1,626.8c-1.77-2.66-1.89-6.09-0.31-8.86l162.4-284.2c2.25-3.94,6.44-6.37,10.98-6.37h132.23
		c12.95,0,21.06,13.99,14.64,25.23L309.42,617.94c-1.58,2.77-1.47,6.2,0.31,8.86l63.95,95.92c7.47,11.21-0.56,26.22-14.03,26.22
		H229.29C225.06,748.93,221.11,746.82,218.77,743.3z"/>
	<circle class="st2" cx="433.31" cy="622.46" r="63.24"/>
	<g class="st2">
		<path d="M567.51,739.96V548.44c0-5.14,4.17-9.31,9.31-9.31h131.76c3.08,0,5.58,2.5,5.58,5.58v26.92c0,3.08-2.5,5.58-5.58,5.58
			H612.6v45.24h83.43c3.08,0,5.58,2.5,5.58,5.58v26.92c0,3.08-2.5,5.58-5.58,5.58H612.6v79.42c0,5.14-4.17,9.31-9.31,9.31h-26.48
			C571.68,749.27,567.51,745.1,567.51,739.96z"/>
		<path d="M763.92,572.85c-8.66,0-15.61-2.63-20.87-7.88c-5.25-5.25-7.88-12.21-7.88-20.87c0-8.75,2.63-15.73,7.88-20.94
			c5.25-5.2,12.21-7.81,20.87-7.81c8.76,0,15.73,2.6,20.94,7.81c5.2,5.21,7.81,12.18,7.81,20.94c0,8.66-2.6,15.61-7.81,20.87
			C779.66,570.22,772.68,572.85,763.92,572.85z M742.18,743.57v-146.2c0-3.15,2.55-5.7,5.7-5.7h32.09c3.15,0,5.7,2.55,5.7,5.7v146.2
			c0,3.15-2.55,5.7-5.7,5.7h-32.09C744.73,749.27,742.18,746.72,742.18,743.57z"/>
		<path d="M872.34,749.27c-11.67,0-20.65-2.85-26.92-8.54c-6.27-5.69-9.41-13.89-9.41-24.59v-92.66h-16.89
			c-3.08,0-5.58-2.5-5.58-5.58v-20.64c0-3.08,2.5-5.58,5.58-5.58h16.89v-26.54c0-2.58,1.77-4.82,4.27-5.43l32.32-7.81
			c3.51-0.85,6.89,1.81,6.89,5.43v34.35h23.6c3.08,0,5.58,2.5,5.58,5.58v20.64c0,3.08-2.5,5.58-5.58,5.58h-23.6v85.8
			c0,3.21,0.46,5.38,1.39,6.49c0.92,1.12,2.89,1.68,5.91,1.68h18.49c3.08,0,5.58,2.5,5.58,5.58v20.65c0,3.08-2.5,5.58-5.58,5.58
			H872.34z"/>
		<path d="M941.36,743.59V544.82c0-3.14,2.54-5.68,5.68-5.68h33.73c3.14,0,5.68,2.54,5.68,5.68V705.5c0,3.14,2.54,5.68,5.68,5.68
			h89.92c3.14,0,5.68,2.54,5.68,5.68v26.73c0,3.14-2.54,5.68-5.68,5.68H947.04C943.91,749.27,941.36,746.73,941.36,743.59z"/>
		<path d="M1177.32,753.06c-15.86,0-29.84-3.5-41.95-10.51c-12.11-7-21.57-16.71-28.38-29.11c-6.81-12.4-10.22-26.73-10.22-42.97
			c0-16.34,3.4-30.72,10.22-43.12c6.81-12.4,16.27-22.08,28.38-29.04c12.11-6.95,26.09-10.43,41.95-10.43
			c15.95,0,29.99,3.48,42.1,10.43c12.11,6.96,21.57,16.63,28.38,29.04c6.81,12.4,10.21,26.78,10.21,43.12s-3.41,30.72-10.21,43.12
			c-6.81,12.4-16.3,22.08-28.46,29.04C1207.18,749.58,1193.18,753.06,1177.32,753.06z M1177.47,721.1c10.8,0,19.33-4.55,25.61-13.64
			c6.27-9.1,9.41-21.43,9.41-36.99c0-15.66-3.14-28.02-9.41-37.06c-6.28-9.05-14.86-13.57-25.75-13.57
			c-10.8,0-19.34,4.52-25.61,13.57c-6.28,9.05-9.41,21.4-9.41,37.06c0,15.66,3.14,28.02,9.41,37.06
			C1157.98,716.58,1166.57,721.1,1177.47,721.1z"/>
		<path d="M1362.93,753.06c-16.54,0-30.86-3.36-42.97-10.07c-12.11-6.71-21.43-16.25-27.94-28.6c-6.52-12.35-9.78-27.04-9.78-44.07
			c0-16.93,3.26-31.57,9.78-43.92c6.52-12.35,15.81-21.86,27.87-28.53c12.06-6.66,26.36-9.99,42.9-9.99
			c11.87,0,22.91,2.14,33.12,6.42c10.22,4.28,18.9,10.63,26.05,19.04c5.96,7.02,10.35,15.44,13.17,25.26
			c0.93,3.26-1.17,6.61-4.49,7.32l-29.46,6.27c-3.04,0.65-6.12-1.15-6.92-4.16c-2.27-8.54-5.75-15.14-10.45-19.8
			c-5.64-5.59-12.75-8.39-21.3-8.39c-11.77,0-20.5,4.67-26.19,14.01c-5.69,9.34-8.54,21.69-8.54,37.06
			c0,15.27,2.82,27.46,8.46,36.55c5.64,9.1,14.44,13.64,26.41,13.64c8.27,0,15.25-2.5,20.94-7.52c4.74-4.17,8.42-10.19,11.04-18.05
			c0.93-2.79,3.71-4.51,6.6-3.97l28.53,5.33c3.48,0.65,5.56,4.17,4.57,7.57c-2,6.87-4.83,12.97-8.49,18.31
			c-4.77,6.96-10.48,12.65-17.15,17.07c-6.66,4.43-13.89,7.73-21.67,9.92C1379.23,751.97,1371.2,753.06,1362.93,753.06z"/>
		<path d="M1516.01,753.06c-12.16,0-22.16-2.77-29.99-8.32c-7.83-5.54-13.64-13.23-17.44-23.06c-3.79-9.82-5.69-21.16-5.69-34
			v-90.35c0-3.13,2.54-5.66,5.66-5.66h32.16c3.13,0,5.66,2.54,5.66,5.66v85.25c0,12.74,2.19,22.2,6.57,28.38
			c4.38,6.18,11.19,9.27,20.43,9.27c5.45,0,10.63-1.43,15.54-4.3c4.91-2.87,8.93-7.66,12.04-14.37c3.11-6.71,4.67-15.86,4.67-27.43
			v-76.78c0-3.13,2.54-5.66,5.66-5.66h32.16c3.13,0,5.66,2.54,5.66,5.66V743.6c0,3.13-2.54,5.66-5.66,5.66h-30.7
			c-3.13,0-5.66-2.54-5.66-5.66v-31.25l0.75,4.72c0.18,1.11,0.03,2.26-0.44,3.27c-4.63,9.95-11.13,17.82-19.5,23.6
			C1539.08,750.02,1528.46,753.06,1516.01,753.06z"/>
		<path d="M1711.1,753.06c-11.87,0-23.06-1.73-33.56-5.18c-10.51-3.45-19.36-8.83-26.56-16.12c-6-6.08-10.18-13.68-12.53-22.8
			c-0.79-3.06,1.25-6.14,4.35-6.75l28.49-5.66c2.97-0.59,5.84,1.3,6.52,4.25c1.45,6.24,4.3,11.14,8.54,14.69
			c5.4,4.52,13.11,6.79,23.13,6.79c9.63,0,16.78-1.92,21.45-5.76c4.67-3.84,7-8.34,7-13.5c0-4.57-1.82-8.51-5.47-11.82
			c-3.65-3.31-9.95-5.64-18.9-7l-14.3-2.33c-5.64-0.88-11.65-2.07-18.02-3.58c-6.37-1.51-12.38-3.79-18.02-6.86
			c-5.64-3.06-10.26-7.32-13.86-12.77c-3.6-5.45-5.4-12.45-5.4-21.01c0-10.41,2.8-19.33,8.39-26.78
			c5.59-7.44,13.35-13.13,23.27-17.07c9.92-3.94,21.25-5.91,34-5.91c11.77,0,22.52,1.73,32.25,5.18
			c9.73,3.45,17.88,8.51,24.44,15.18c5.19,5.26,8.93,11.51,11.23,18.74c1.01,3.16-0.96,6.5-4.21,7.17l-28.68,5.9
			c-2.81,0.58-5.59-1.07-6.45-3.81c-0.69-2.2-1.59-4.31-2.69-6.35c-1.9-3.5-4.79-6.35-8.68-8.54c-3.89-2.19-9.15-3.28-15.76-3.28
			c-7.49,0-13.45,1.46-17.88,4.38c-4.43,2.92-6.64,6.91-6.64,11.97c0,3.7,1.24,6.71,3.72,9.05c2.48,2.33,5.88,4.21,10.22,5.62
			c4.33,1.41,9.22,2.6,14.66,3.57l16.34,2.77c8.37,1.36,16.32,3.72,23.86,7.08c7.54,3.36,13.69,8.15,18.46,14.37
			c4.77,6.23,7.15,14.4,7.15,24.51c0,11.19-3.04,20.63-9.12,28.31c-6.08,7.69-14.4,13.5-24.95,17.44
			C1736.37,751.09,1724.43,753.06,1711.1,753.06z"/>
	</g>
</g>
<g id="Branco" class="st0">
	<path class="st6" d="M218.77,743.3L141.1,626.8c-1.77-2.66-1.89-6.09-0.31-8.86l162.4-284.2c2.25-3.94,6.44-6.37,10.98-6.37h132.23
		c12.95,0,21.06,13.99,14.64,25.23L309.42,617.94c-1.58,2.77-1.47,6.2,0.31,8.86l63.95,95.92c7.47,11.21-0.56,26.22-14.03,26.22
		H229.29C225.06,748.93,221.11,746.82,218.77,743.3z"/>
	<circle class="st6" cx="433.31" cy="622.46" r="63.24"/>
	<g class="st2">
		<path class="st7" d="M567.51,739.96V548.44c0-5.14,4.17-9.31,9.31-9.31h131.76c3.08,0,5.58,2.5,5.58,5.58v26.92
			c0,3.08-2.5,5.58-5.58,5.58H612.6v45.24h83.43c3.08,0,5.58,2.5,5.58,5.58v26.92c0,3.08-2.5,5.58-5.58,5.58H612.6v79.42
			c0,5.14-4.17,9.31-9.31,9.31h-26.48C571.68,749.27,567.51,745.1,567.51,739.96z"/>
		<path class="st7" d="M763.92,572.85c-8.66,0-15.61-2.63-20.87-7.88c-5.25-5.25-7.88-12.21-7.88-20.87
			c0-8.75,2.63-15.73,7.88-20.94c5.25-5.2,12.21-7.81,20.87-7.81c8.76,0,15.73,2.6,20.94,7.81c5.2,5.21,7.81,12.18,7.81,20.94
			c0,8.66-2.6,15.61-7.81,20.87C779.66,570.22,772.68,572.85,763.92,572.85z M742.18,743.57v-146.2c0-3.15,2.55-5.7,5.7-5.7h32.09
			c3.15,0,5.7,2.55,5.7,5.7v146.2c0,3.15-2.55,5.7-5.7,5.7h-32.09C744.73,749.27,742.18,746.72,742.18,743.57z"/>
		<path class="st7" d="M872.34,749.27c-11.67,0-20.65-2.85-26.92-8.54c-6.27-5.69-9.41-13.89-9.41-24.59v-92.66h-16.89
			c-3.08,0-5.58-2.5-5.58-5.58v-20.64c0-3.08,2.5-5.58,5.58-5.58h16.89v-26.54c0-2.58,1.77-4.82,4.27-5.43l32.32-7.81
			c3.51-0.85,6.89,1.81,6.89,5.43v34.35h23.6c3.08,0,5.58,2.5,5.58,5.58v20.64c0,3.08-2.5,5.58-5.58,5.58h-23.6v85.8
			c0,3.21,0.46,5.38,1.39,6.49c0.92,1.12,2.89,1.68,5.91,1.68h18.49c3.08,0,5.58,2.5,5.58,5.58v20.65c0,3.08-2.5,5.58-5.58,5.58
			H872.34z"/>
		<path class="st7" d="M941.36,743.59V544.82c0-3.14,2.54-5.68,5.68-5.68h33.73c3.14,0,5.68,2.54,5.68,5.68V705.5
			c0,3.14,2.54,5.68,5.68,5.68h89.92c3.14,0,5.68,2.54,5.68,5.68v26.73c0,3.14-2.54,5.68-5.68,5.68H947.04
			C943.91,749.27,941.36,746.73,941.36,743.59z"/>
		<path class="st7" d="M1177.32,753.06c-15.86,0-29.84-3.5-41.95-10.51c-12.11-7-21.57-16.71-28.38-29.11
			c-6.81-12.4-10.22-26.73-10.22-42.97c0-16.34,3.4-30.72,10.22-43.12c6.81-12.4,16.27-22.08,28.38-29.04
			c12.11-6.95,26.09-10.43,41.95-10.43c15.95,0,29.99,3.48,42.1,10.43c12.11,6.96,21.57,16.63,28.38,29.04
			c6.81,12.4,10.21,26.78,10.21,43.12s-3.41,30.72-10.21,43.12c-6.81,12.4-16.3,22.08-28.46,29.04
			C1207.18,749.58,1193.18,753.06,1177.32,753.06z M1177.47,721.1c10.8,0,19.33-4.55,25.61-13.64c6.27-9.1,9.41-21.43,9.41-36.99
			c0-15.66-3.14-28.02-9.41-37.06c-6.28-9.05-14.86-13.57-25.75-13.57c-10.8,0-19.34,4.52-25.61,13.57
			c-6.28,9.05-9.41,21.4-9.41,37.06c0,15.66,3.14,28.02,9.41,37.06C1157.98,716.58,1166.57,721.1,1177.47,721.1z"/>
		<path class="st7" d="M1362.93,753.06c-16.54,0-30.86-3.36-42.97-10.07c-12.11-6.71-21.43-16.25-27.94-28.6
			c-6.52-12.35-9.78-27.04-9.78-44.07c0-16.93,3.26-31.57,9.78-43.92c6.52-12.35,15.81-21.86,27.87-28.53
			c12.06-6.66,26.36-9.99,42.9-9.99c11.87,0,22.91,2.14,33.12,6.42c10.22,4.28,18.9,10.63,26.05,19.04
			c5.96,7.02,10.35,15.44,13.17,25.26c0.93,3.26-1.17,6.61-4.49,7.32l-29.46,6.27c-3.04,0.65-6.12-1.15-6.92-4.16
			c-2.27-8.54-5.75-15.14-10.45-19.8c-5.64-5.59-12.75-8.39-21.3-8.39c-11.77,0-20.5,4.67-26.19,14.01
			c-5.69,9.34-8.54,21.69-8.54,37.06c0,15.27,2.82,27.46,8.46,36.55c5.64,9.1,14.44,13.64,26.41,13.64c8.27,0,15.25-2.5,20.94-7.52
			c4.74-4.17,8.42-10.19,11.04-18.05c0.93-2.79,3.71-4.51,6.6-3.97l28.53,5.33c3.48,0.65,5.56,4.17,4.57,7.57
			c-2,6.87-4.83,12.97-8.49,18.31c-4.77,6.96-10.48,12.65-17.15,17.07c-6.66,4.43-13.89,7.73-21.67,9.92
			C1379.23,751.97,1371.2,753.06,1362.93,753.06z"/>
		<path class="st7" d="M1516.01,753.06c-12.16,0-22.16-2.77-29.99-8.32c-7.83-5.54-13.64-13.23-17.44-23.06
			c-3.79-9.82-5.69-21.16-5.69-34v-90.35c0-3.13,2.54-5.66,5.66-5.66h32.16c3.13,0,5.66,2.54,5.66,5.66v85.25
			c0,12.74,2.19,22.2,6.57,28.38c4.38,6.18,11.19,9.27,20.43,9.27c5.45,0,10.63-1.43,15.54-4.3c4.91-2.87,8.93-7.66,12.04-14.37
			c3.11-6.71,4.67-15.86,4.67-27.43v-76.78c0-3.13,2.54-5.66,5.66-5.66h32.16c3.13,0,5.66,2.54,5.66,5.66V743.6
			c0,3.13-2.54,5.66-5.66,5.66h-30.7c-3.13,0-5.66-2.54-5.66-5.66v-31.25l0.75,4.72c0.18,1.11,0.03,2.26-0.44,3.27
			c-4.63,9.95-11.13,17.82-19.5,23.6C1539.08,750.02,1528.46,753.06,1516.01,753.06z"/>
		<path class="st7" d="M1711.1,753.06c-11.87,0-23.06-1.73-33.56-5.18c-10.51-3.45-19.36-8.83-26.56-16.12
			c-6-6.08-10.18-13.68-12.53-22.8c-0.79-3.06,1.25-6.14,4.35-6.75l28.49-5.66c2.97-0.59,5.84,1.3,6.52,4.25
			c1.45,6.24,4.3,11.14,8.54,14.69c5.4,4.52,13.11,6.79,23.13,6.79c9.63,0,16.78-1.92,21.45-5.76c4.67-3.84,7-8.34,7-13.5
			c0-4.57-1.82-8.51-5.47-11.82c-3.65-3.31-9.95-5.64-18.9-7l-14.3-2.33c-5.64-0.88-11.65-2.07-18.02-3.58
			c-6.37-1.51-12.38-3.79-18.02-6.86c-5.64-3.06-10.26-7.32-13.86-12.77c-3.6-5.45-5.4-12.45-5.4-21.01
			c0-10.41,2.8-19.33,8.39-26.78c5.59-7.44,13.35-13.13,23.27-17.07c9.92-3.94,21.25-5.91,34-5.91c11.77,0,22.52,1.73,32.25,5.18
			c9.73,3.45,17.88,8.51,24.44,15.18c5.19,5.26,8.93,11.51,11.23,18.74c1.01,3.16-0.96,6.5-4.21,7.17l-28.68,5.9
			c-2.81,0.58-5.59-1.07-6.45-3.81c-0.69-2.2-1.59-4.31-2.69-6.35c-1.9-3.5-4.79-6.35-8.68-8.54c-3.89-2.19-9.15-3.28-15.76-3.28
			c-7.49,0-13.45,1.46-17.88,4.38c-4.43,2.92-6.64,6.91-6.64,11.97c0,3.7,1.24,6.71,3.72,9.05c2.48,2.33,5.88,4.21,10.22,5.62
			c4.33,1.41,9.22,2.6,14.66,3.57l16.34,2.77c8.37,1.36,16.32,3.72,23.86,7.08c7.54,3.36,13.69,8.15,18.46,14.37
			c4.77,6.23,7.15,14.4,7.15,24.51c0,11.19-3.04,20.63-9.12,28.31c-6.08,7.69-14.4,13.5-24.95,17.44
			C1736.37,751.09,1724.43,753.06,1711.1,753.06z"/>
	</g>
</g>
<g id="Verde" class="st0">
	<path class="st1" d="M218.77,743.3L141.1,626.8c-1.77-2.66-1.89-6.09-0.31-8.86l162.4-284.2c2.25-3.94,6.44-6.37,10.98-6.37h132.23
		c12.95,0,21.06,13.99,14.64,25.23L309.42,617.94c-1.58,2.77-1.47,6.2,0.31,8.86l63.95,95.92c7.47,11.21-0.56,26.22-14.03,26.22
		H229.29C225.06,748.93,221.11,746.82,218.77,743.3z"/>
	<circle class="st1" cx="433.31" cy="622.46" r="63.24"/>
	<g class="st2">
		<path class="st4" d="M567.51,739.96V548.44c0-5.14,4.17-9.31,9.31-9.31h131.76c3.08,0,5.58,2.5,5.58,5.58v26.92
			c0,3.08-2.5,5.58-5.58,5.58H612.6v45.24h83.43c3.08,0,5.58,2.5,5.58,5.58v26.92c0,3.08-2.5,5.58-5.58,5.58H612.6v79.42
			c0,5.14-4.17,9.31-9.31,9.31h-26.48C571.68,749.27,567.51,745.1,567.51,739.96z"/>
		<path class="st4" d="M763.92,572.85c-8.66,0-15.61-2.63-20.87-7.88c-5.25-5.25-7.88-12.21-7.88-20.87
			c0-8.75,2.63-15.73,7.88-20.94c5.25-5.2,12.21-7.81,20.87-7.81c8.76,0,15.73,2.6,20.94,7.81c5.2,5.21,7.81,12.18,7.81,20.94
			c0,8.66-2.6,15.61-7.81,20.87C779.66,570.22,772.68,572.85,763.92,572.85z M742.18,743.57v-146.2c0-3.15,2.55-5.7,5.7-5.7h32.09
			c3.15,0,5.7,2.55,5.7,5.7v146.2c0,3.15-2.55,5.7-5.7,5.7h-32.09C744.73,749.27,742.18,746.72,742.18,743.57z"/>
		<path class="st4" d="M872.34,749.27c-11.67,0-20.65-2.85-26.92-8.54c-6.27-5.69-9.41-13.89-9.41-24.59v-92.66h-16.89
			c-3.08,0-5.58-2.5-5.58-5.58v-20.64c0-3.08,2.5-5.58,5.58-5.58h16.89v-26.54c0-2.58,1.77-4.82,4.27-5.43l32.32-7.81
			c3.51-0.85,6.89,1.81,6.89,5.43v34.35h23.6c3.08,0,5.58,2.5,5.58,5.58v20.64c0,3.08-2.5,5.58-5.58,5.58h-23.6v85.8
			c0,3.21,0.46,5.38,1.39,6.49c0.92,1.12,2.89,1.68,5.91,1.68h18.49c3.08,0,5.58,2.5,5.58,5.58v20.65c0,3.08-2.5,5.58-5.58,5.58
			H872.34z"/>
		<path class="st4" d="M941.36,743.59V544.82c0-3.14,2.54-5.68,5.68-5.68h33.73c3.14,0,5.68,2.54,5.68,5.68V705.5
			c0,3.14,2.54,5.68,5.68,5.68h89.92c3.14,0,5.68,2.54,5.68,5.68v26.73c0,3.14-2.54,5.68-5.68,5.68H947.04
			C943.91,749.27,941.36,746.73,941.36,743.59z"/>
		<path class="st4" d="M1177.32,753.06c-15.86,0-29.84-3.5-41.95-10.51c-12.11-7-21.57-16.71-28.38-29.11
			c-6.81-12.4-10.22-26.73-10.22-42.97c0-16.34,3.4-30.72,10.22-43.12c6.81-12.4,16.27-22.08,28.38-29.04
			c12.11-6.95,26.09-10.43,41.95-10.43c15.95,0,29.99,3.48,42.1,10.43c12.11,6.96,21.57,16.63,28.38,29.04
			c6.81,12.4,10.21,26.78,10.21,43.12s-3.41,30.72-10.21,43.12c-6.81,12.4-16.3,22.08-28.46,29.04
			C1207.18,749.58,1193.18,753.06,1177.32,753.06z M1177.47,721.1c10.8,0,19.33-4.55,25.61-13.64c6.27-9.1,9.41-21.43,9.41-36.99
			c0-15.66-3.14-28.02-9.41-37.06c-6.28-9.05-14.86-13.57-25.75-13.57c-10.8,0-19.34,4.52-25.61,13.57
			c-6.28,9.05-9.41,21.4-9.41,37.06c0,15.66,3.14,28.02,9.41,37.06C1157.98,716.58,1166.57,721.1,1177.47,721.1z"/>
		<path class="st4" d="M1362.93,753.06c-16.54,0-30.86-3.36-42.97-10.07c-12.11-6.71-21.43-16.25-27.94-28.6
			c-6.52-12.35-9.78-27.04-9.78-44.07c0-16.93,3.26-31.57,9.78-43.92c6.52-12.35,15.81-21.86,27.87-28.53
			c12.06-6.66,26.36-9.99,42.9-9.99c11.87,0,22.91,2.14,33.12,6.42c10.22,4.28,18.9,10.63,26.05,19.04
			c5.96,7.02,10.35,15.44,13.17,25.26c0.93,3.26-1.17,6.61-4.49,7.32l-29.46,6.27c-3.04,0.65-6.12-1.15-6.92-4.16
			c-2.27-8.54-5.75-15.14-10.45-19.8c-5.64-5.59-12.75-8.39-21.3-8.39c-11.77,0-20.5,4.67-26.19,14.01
			c-5.69,9.34-8.54,21.69-8.54,37.06c0,15.27,2.82,27.46,8.46,36.55c5.64,9.1,14.44,13.64,26.41,13.64c8.27,0,15.25-2.5,20.94-7.52
			c4.74-4.17,8.42-10.19,11.04-18.05c0.93-2.79,3.71-4.51,6.6-3.97l28.53,5.33c3.48,0.65,5.56,4.17,4.57,7.57
			c-2,6.87-4.83,12.97-8.49,18.31c-4.77,6.96-10.48,12.65-17.15,17.07c-6.66,4.43-13.89,7.73-21.67,9.92
			C1379.23,751.97,1371.2,753.06,1362.93,753.06z"/>
		<path class="st4" d="M1516.01,753.06c-12.16,0-22.16-2.77-29.99-8.32c-7.83-5.54-13.64-13.23-17.44-23.06
			c-3.79-9.82-5.69-21.16-5.69-34v-90.35c0-3.13,2.54-5.66,5.66-5.66h32.16c3.13,0,5.66,2.54,5.66,5.66v85.25
			c0,12.74,2.19,22.2,6.57,28.38c4.38,6.18,11.19,9.27,20.43,9.27c5.45,0,10.63-1.43,15.54-4.3c4.91-2.87,8.93-7.66,12.04-14.37
			c3.11-6.71,4.67-15.86,4.67-27.43v-76.78c0-3.13,2.54-5.66,5.66-5.66h32.16c3.13,0,5.66,2.54,5.66,5.66V743.6
			c0,3.13-2.54,5.66-5.66,5.66h-30.7c-3.13,0-5.66-2.54-5.66-5.66v-31.25l0.75,4.72c0.18,1.11,0.03,2.26-0.44,3.27
			c-4.63,9.95-11.13,17.82-19.5,23.6C1539.08,750.02,1528.46,753.06,1516.01,753.06z"/>
		<path class="st4" d="M1711.1,753.06c-11.87,0-23.06-1.73-33.56-5.18c-10.51-3.45-19.36-8.83-26.56-16.12
			c-6-6.08-10.18-13.68-12.53-22.8c-0.79-3.06,1.25-6.14,4.35-6.75l28.49-5.66c2.97-0.59,5.84,1.3,6.52,4.25
			c1.45,6.24,4.3,11.14,8.54,14.69c5.4,4.52,13.11,6.79,23.13,6.79c9.63,0,16.78-1.92,21.45-5.76c4.67-3.84,7-8.34,7-13.5
			c0-4.57-1.82-8.51-5.47-11.82c-3.65-3.31-9.95-5.64-18.9-7l-14.3-2.33c-5.64-0.88-11.65-2.07-18.02-3.58
			c-6.37-1.51-12.38-3.79-18.02-6.86c-5.64-3.06-10.26-7.32-13.86-12.77c-3.6-5.45-5.4-12.45-5.4-21.01
			c0-10.41,2.8-19.33,8.39-26.78c5.59-7.44,13.35-13.13,23.27-17.07c9.92-3.94,21.25-5.91,34-5.91c11.77,0,22.52,1.73,32.25,5.18
			c9.73,3.45,17.88,8.51,24.44,15.18c5.19,5.26,8.93,11.51,11.23,18.74c1.01,3.16-0.96,6.5-4.21,7.17l-28.68,5.9
			c-2.81,0.58-5.59-1.07-6.45-3.81c-0.69-2.2-1.59-4.31-2.69-6.35c-1.9-3.5-4.79-6.35-8.68-8.54c-3.89-2.19-9.15-3.28-15.76-3.28
			c-7.49,0-13.45,1.46-17.88,4.38c-4.43,2.92-6.64,6.91-6.64,11.97c0,3.7,1.24,6.71,3.72,9.05c2.48,2.33,5.88,4.21,10.22,5.62
			c4.33,1.41,9.22,2.6,14.66,3.57l16.34,2.77c8.37,1.36,16.32,3.72,23.86,7.08c7.54,3.36,13.69,8.15,18.46,14.37
			c4.77,6.23,7.15,14.4,7.15,24.51c0,11.19-3.04,20.63-9.12,28.31c-6.08,7.69-14.4,13.5-24.95,17.44
			C1736.37,751.09,1724.43,753.06,1711.1,753.06z"/>
	</g>
</g>
<g id="_x3D__x3D__x3D__x3D__x3D__x3D__x3D__x3D__x3D__x3D__x3D__x3D__x3D__x3D__x3D__x3D__x3D_" class="st0">
</g>
<g id="normal" class="st0">
	<path class="st1" d="M830.74,668.33L728.63,515.17c-2.33-3.49-2.48-8-0.4-11.65l213.51-373.64c2.96-5.18,8.47-8.38,14.44-8.38
		h173.84c17.02,0,27.69,18.39,19.25,33.17L949.92,503.52c-2.08,3.65-1.93,8.15,0.4,11.65l84.07,126.1
		c9.82,14.73-0.74,34.47-18.45,34.47H844.58C839.02,675.73,833.83,672.96,830.74,668.33z"/>
	<circle class="st1" cx="1112.79" cy="509.47" r="83.13"/>
	<g class="st2">
		<path class="st3" d="M427.67,946.11V777.97c0-4.51,3.66-8.17,8.17-8.17h115.68c2.71,0,4.9,2.19,4.9,4.9v23.63
			c0,2.71-2.19,4.9-4.9,4.9h-84.26v39.71h73.24c2.71,0,4.9,2.19,4.9,4.9v23.63c0,2.71-2.19,4.9-4.9,4.9h-73.24v69.72
			c0,4.51-3.66,8.17-8.17,8.17h-23.25C431.32,954.28,427.67,950.62,427.67,946.11z"/>
		<path class="st3" d="M600.1,799.39c-7.6,0-13.71-2.31-18.32-6.92c-4.61-4.61-6.92-10.72-6.92-18.32c0-7.69,2.31-13.81,6.92-18.38
			c4.61-4.57,10.72-6.85,18.32-6.85c7.69,0,13.81,2.29,18.38,6.85c4.57,4.57,6.85,10.7,6.85,18.38c0,7.6-2.29,13.71-6.85,18.32
			C613.91,797.09,607.78,799.39,600.1,799.39z M581.01,949.27V820.92c0-2.76,2.24-5,5-5h28.17c2.76,0,5,2.24,5,5v128.35
			c0,2.76-2.24,5-5,5h-28.17C583.25,954.28,581.01,952.04,581.01,949.27z"/>
		<path class="st3" d="M695.28,954.28c-10.25,0-18.13-2.5-23.64-7.49c-5.51-5-8.26-12.19-8.26-21.59v-81.35h-14.83
			c-2.71,0-4.9-2.19-4.9-4.9v-18.12c0-2.71,2.19-4.9,4.9-4.9h14.83v-23.3c0-2.26,1.55-4.23,3.75-4.76l28.37-6.86
			c3.08-0.75,6.05,1.59,6.05,4.76v30.16h20.72c2.71,0,4.9,2.19,4.9,4.9v18.12c0,2.71-2.19,4.9-4.9,4.9h-20.72v75.33
			c0,2.82,0.4,4.72,1.22,5.7c0.81,0.98,2.54,1.47,5.19,1.47h16.24c2.71,0,4.9,2.19,4.9,4.9v18.12c0,2.71-2.19,4.9-4.9,4.9H695.28z"
			/>
		<path class="st4" d="M755.88,949.29v-174.5c0-2.75,2.23-4.98,4.98-4.98h29.62c2.75,0,4.98,2.23,4.98,4.98v141.07
			c0,2.75,2.23,4.98,4.98,4.98h78.94c2.75,0,4.98,2.23,4.98,4.98v23.47c0,2.75-2.23,4.98-4.98,4.98H760.86
			C758.11,954.28,755.88,952.04,755.88,949.29z"/>
		<path class="st4" d="M963.02,957.61c-13.92,0-26.2-3.07-36.83-9.22c-10.63-6.15-18.94-14.67-24.92-25.56
			c-5.98-10.89-8.97-23.46-8.97-37.73c0-14.35,2.99-26.97,8.97-37.85c5.98-10.89,14.28-19.39,24.92-25.49
			c10.63-6.11,22.91-9.16,36.83-9.16c14.01,0,26.32,3.05,36.96,9.16c10.63,6.11,18.94,14.6,24.92,25.49
			c5.98,10.89,8.97,23.51,8.97,37.85c0,14.35-2.99,26.97-8.97,37.86c-5.98,10.89-14.31,19.39-24.98,25.49
			C989.24,954.55,976.94,957.61,963.02,957.61z M963.15,929.55c9.48,0,16.97-3.99,22.48-11.98c5.51-7.98,8.26-18.81,8.26-32.48
			c0-13.75-2.76-24.6-8.26-32.54c-5.51-7.94-13.05-11.91-22.61-11.91c-9.48,0-16.97,3.97-22.48,11.91
			c-5.51,7.94-8.26,18.79-8.26,32.54c0,13.75,2.75,24.6,8.26,32.54C946.05,925.58,953.59,929.55,963.15,929.55z"/>
		<path class="st4" d="M1125.98,957.61c-14.52,0-27.1-2.95-37.73-8.84c-10.63-5.89-18.81-14.26-24.53-25.11
			c-5.72-10.84-8.58-23.74-8.58-38.69c0-14.86,2.86-27.71,8.58-38.56c5.72-10.84,13.88-19.19,24.47-25.05
			c10.59-5.85,23.14-8.77,37.66-8.77c10.42,0,20.11,1.88,29.08,5.64c8.97,3.76,16.59,9.33,22.87,16.72
			c5.23,6.16,9.09,13.55,11.56,22.17c0.82,2.86-1.03,5.8-3.94,6.42l-25.87,5.5c-2.67,0.57-5.37-1.01-6.08-3.65
			c-1.99-7.5-5.05-13.29-9.18-17.38c-4.95-4.91-11.19-7.37-18.7-7.37c-10.33,0-18,4.1-22.99,12.3c-5,8.2-7.49,19.05-7.49,32.54
			c0,13.41,2.48,24.11,7.43,32.09c4.95,7.99,12.68,11.98,23.19,11.98c7.26,0,13.39-2.2,18.38-6.6c4.16-3.66,7.39-8.95,9.69-15.84
			c0.81-2.45,3.26-3.96,5.79-3.49l25.04,4.68c3.05,0.57,4.88,3.66,4.01,6.65c-1.75,6.03-4.24,11.39-7.45,16.08
			c-4.19,6.11-9.2,11.1-15.05,14.99c-5.85,3.89-12.19,6.79-19.02,8.71C1140.28,956.64,1133.23,957.61,1125.98,957.61z"/>
		<path class="st4" d="M1260.36,957.61c-10.68,0-19.45-2.43-26.33-7.3c-6.88-4.87-11.98-11.61-15.31-20.24
			c-3.33-8.62-5-18.58-5-29.85v-79.32c0-2.75,2.23-4.97,4.97-4.97h28.23c2.75,0,4.97,2.23,4.97,4.97v74.84
			c0,11.19,1.92,19.49,5.76,24.92c3.84,5.42,9.82,8.13,17.93,8.13c4.78,0,9.33-1.26,13.64-3.78c4.31-2.52,7.84-6.73,10.57-12.62
			s4.1-13.92,4.1-24.08v-67.41c0-2.75,2.23-4.97,4.97-4.97h28.23c2.75,0,4.97,2.23,4.97,4.97V949.3c0,2.75-2.23,4.97-4.97,4.97
			h-26.95c-2.75,0-4.97-2.23-4.97-4.97v-27.44l0.66,4.15c0.16,0.97,0.03,1.98-0.39,2.87c-4.07,8.74-9.78,15.64-17.12,20.72
			C1280.62,954.94,1271.29,957.61,1260.36,957.61z"/>
		<path class="st4" d="M1431.64,957.61c-10.42,0-20.24-1.52-29.46-4.55c-9.22-3.03-17-7.75-23.32-14.16
			c-5.27-5.34-8.93-12.01-11-20.02c-0.69-2.69,1.1-5.39,3.82-5.93l25.01-4.97c2.6-0.52,5.13,1.14,5.73,3.73
			c1.27,5.48,3.77,9.78,7.5,12.9c4.74,3.97,11.51,5.96,20.3,5.96c8.45,0,14.73-1.69,18.83-5.06c4.1-3.37,6.15-7.32,6.15-11.85
			c0-4.01-1.6-7.47-4.8-10.38c-3.2-2.9-8.73-4.95-16.59-6.15l-12.56-2.05c-4.95-0.77-10.23-1.81-15.82-3.14
			c-5.59-1.32-10.87-3.33-15.82-6.02c-4.95-2.69-9.01-6.43-12.17-11.21c-3.16-4.78-4.74-10.93-4.74-18.45
			c0-9.14,2.45-16.97,7.37-23.51c4.91-6.53,11.72-11.53,20.43-14.99c8.71-3.46,18.66-5.19,29.85-5.19c10.33,0,19.77,1.52,28.31,4.55
			c8.54,3.03,15.69,7.47,21.46,13.32c4.55,4.62,7.84,10.11,9.86,16.46c0.88,2.77-0.85,5.71-3.7,6.3l-25.17,5.18
			c-2.47,0.51-4.9-0.94-5.66-3.34c-0.61-1.93-1.39-3.79-2.36-5.57c-1.66-3.07-4.21-5.57-7.62-7.49c-3.42-1.92-8.03-2.88-13.83-2.88
			c-6.58,0-11.81,1.28-15.69,3.84c-3.89,2.56-5.83,6.07-5.83,10.51c0,3.25,1.09,5.89,3.27,7.94c2.18,2.05,5.17,3.7,8.97,4.93
			c3.8,1.24,8.09,2.29,12.87,3.14l14.35,2.43c7.34,1.2,14.33,3.27,20.95,6.21c6.62,2.95,12.02,7.15,16.21,12.62
			c4.18,5.47,6.28,12.64,6.28,21.52c0,9.82-2.67,18.11-8.01,24.85c-5.34,6.75-12.64,11.85-21.91,15.31
			C1453.82,955.88,1443.34,957.61,1431.64,957.61z"/>
	</g>
</g>
<g id="secundária" class="st0">
	<path class="st1" d="M830.74,668.33L728.63,515.17c-2.33-3.49-2.48-8-0.4-11.65l213.51-373.64c2.96-5.18,8.47-8.38,14.44-8.38
		h173.84c17.02,0,27.69,18.39,19.25,33.17L949.92,503.52c-2.08,3.65-1.93,8.15,0.4,11.65l84.07,126.1
		c9.82,14.73-0.74,34.47-18.45,34.47H844.58C839.02,675.73,833.83,672.96,830.74,668.33z"/>
	<circle class="st1" cx="1112.79" cy="509.47" r="83.13"/>
	<g class="st2">
		<path class="st5" d="M427.67,946.11V777.97c0-4.51,3.66-8.17,8.17-8.17h115.68c2.71,0,4.9,2.19,4.9,4.9v23.63
			c0,2.71-2.19,4.9-4.9,4.9h-84.26v39.71h73.24c2.71,0,4.9,2.19,4.9,4.9v23.63c0,2.71-2.19,4.9-4.9,4.9h-73.24v69.72
			c0,4.51-3.66,8.17-8.17,8.17h-23.25C431.32,954.28,427.67,950.62,427.67,946.11z"/>
		<path class="st5" d="M600.1,799.39c-7.6,0-13.71-2.31-18.32-6.92c-4.61-4.61-6.92-10.72-6.92-18.32c0-7.69,2.31-13.81,6.92-18.38
			c4.61-4.57,10.72-6.85,18.32-6.85c7.69,0,13.81,2.29,18.38,6.85c4.57,4.57,6.85,10.7,6.85,18.38c0,7.6-2.29,13.71-6.85,18.32
			C613.91,797.09,607.78,799.39,600.1,799.39z M581.01,949.27V820.92c0-2.76,2.24-5,5-5h28.17c2.76,0,5,2.24,5,5v128.35
			c0,2.76-2.24,5-5,5h-28.17C583.25,954.28,581.01,952.04,581.01,949.27z"/>
		<path class="st5" d="M695.28,954.28c-10.25,0-18.13-2.5-23.64-7.49c-5.51-5-8.26-12.19-8.26-21.59v-81.35h-14.83
			c-2.71,0-4.9-2.19-4.9-4.9v-18.12c0-2.71,2.19-4.9,4.9-4.9h14.83v-23.3c0-2.26,1.55-4.23,3.75-4.76l28.37-6.86
			c3.08-0.75,6.05,1.59,6.05,4.76v30.16h20.72c2.71,0,4.9,2.19,4.9,4.9v18.12c0,2.71-2.19,4.9-4.9,4.9h-20.72v75.33
			c0,2.82,0.4,4.72,1.22,5.7c0.81,0.98,2.54,1.47,5.19,1.47h16.24c2.71,0,4.9,2.19,4.9,4.9v18.12c0,2.71-2.19,4.9-4.9,4.9H695.28z"
			/>
		<path class="st4" d="M755.88,949.29v-174.5c0-2.75,2.23-4.98,4.98-4.98h29.62c2.75,0,4.98,2.23,4.98,4.98v141.07
			c0,2.75,2.23,4.98,4.98,4.98h78.94c2.75,0,4.98,2.23,4.98,4.98v23.47c0,2.75-2.23,4.98-4.98,4.98H760.86
			C758.11,954.28,755.88,952.04,755.88,949.29z"/>
		<path class="st4" d="M963.02,957.61c-13.92,0-26.2-3.07-36.83-9.22c-10.63-6.15-18.94-14.67-24.92-25.56
			c-5.98-10.89-8.97-23.46-8.97-37.73c0-14.35,2.99-26.97,8.97-37.85c5.98-10.89,14.28-19.39,24.92-25.49
			c10.63-6.11,22.91-9.16,36.83-9.16c14.01,0,26.32,3.05,36.96,9.16c10.63,6.11,18.94,14.6,24.92,25.49
			c5.98,10.89,8.97,23.51,8.97,37.85c0,14.35-2.99,26.97-8.97,37.86c-5.98,10.89-14.31,19.39-24.98,25.49
			C989.24,954.55,976.94,957.61,963.02,957.61z M963.15,929.55c9.48,0,16.97-3.99,22.48-11.98c5.51-7.98,8.26-18.81,8.26-32.48
			c0-13.75-2.76-24.6-8.26-32.54c-5.51-7.94-13.05-11.91-22.61-11.91c-9.48,0-16.97,3.97-22.48,11.91
			c-5.51,7.94-8.26,18.79-8.26,32.54c0,13.75,2.75,24.6,8.26,32.54C946.05,925.58,953.59,929.55,963.15,929.55z"/>
		<path class="st4" d="M1125.98,957.61c-14.52,0-27.1-2.95-37.73-8.84c-10.63-5.89-18.81-14.26-24.53-25.11
			c-5.72-10.84-8.58-23.74-8.58-38.69c0-14.86,2.86-27.71,8.58-38.56c5.72-10.84,13.88-19.19,24.47-25.05
			c10.59-5.85,23.14-8.77,37.66-8.77c10.42,0,20.11,1.88,29.08,5.64c8.97,3.76,16.59,9.33,22.87,16.72
			c5.23,6.16,9.09,13.55,11.56,22.17c0.82,2.86-1.03,5.8-3.94,6.42l-25.87,5.5c-2.67,0.57-5.37-1.01-6.08-3.65
			c-1.99-7.5-5.05-13.29-9.18-17.38c-4.95-4.91-11.19-7.37-18.7-7.37c-10.33,0-18,4.1-22.99,12.3c-5,8.2-7.49,19.05-7.49,32.54
			c0,13.41,2.48,24.11,7.43,32.09c4.95,7.99,12.68,11.98,23.19,11.98c7.26,0,13.39-2.2,18.38-6.6c4.16-3.66,7.39-8.95,9.69-15.84
			c0.81-2.45,3.26-3.96,5.79-3.49l25.04,4.68c3.05,0.57,4.88,3.66,4.01,6.65c-1.75,6.03-4.24,11.39-7.45,16.08
			c-4.19,6.11-9.2,11.1-15.05,14.99c-5.85,3.89-12.19,6.79-19.02,8.71C1140.28,956.64,1133.23,957.61,1125.98,957.61z"/>
		<path class="st4" d="M1260.36,957.61c-10.68,0-19.45-2.43-26.33-7.3c-6.88-4.87-11.98-11.61-15.31-20.24
			c-3.33-8.62-5-18.58-5-29.85v-79.32c0-2.75,2.23-4.97,4.97-4.97h28.23c2.75,0,4.97,2.23,4.97,4.97v74.84
			c0,11.19,1.92,19.49,5.76,24.92c3.84,5.42,9.82,8.13,17.93,8.13c4.78,0,9.33-1.26,13.64-3.78c4.31-2.52,7.84-6.73,10.57-12.62
			s4.1-13.92,4.1-24.08v-67.41c0-2.75,2.23-4.97,4.97-4.97h28.23c2.75,0,4.97,2.23,4.97,4.97V949.3c0,2.75-2.23,4.97-4.97,4.97
			h-26.95c-2.75,0-4.97-2.23-4.97-4.97v-27.44l0.66,4.15c0.16,0.97,0.03,1.98-0.39,2.87c-4.07,8.74-9.78,15.64-17.12,20.72
			C1280.62,954.94,1271.29,957.61,1260.36,957.61z"/>
		<path class="st4" d="M1431.64,957.61c-10.42,0-20.24-1.52-29.46-4.55c-9.22-3.03-17-7.75-23.32-14.16
			c-5.27-5.34-8.93-12.01-11-20.02c-0.69-2.69,1.1-5.39,3.82-5.93l25.01-4.97c2.6-0.52,5.13,1.14,5.73,3.73
			c1.27,5.48,3.77,9.78,7.5,12.9c4.74,3.97,11.51,5.96,20.3,5.96c8.45,0,14.73-1.69,18.83-5.06c4.1-3.37,6.15-7.32,6.15-11.85
			c0-4.01-1.6-7.47-4.8-10.38c-3.2-2.9-8.73-4.95-16.59-6.15l-12.56-2.05c-4.95-0.77-10.23-1.81-15.82-3.14
			c-5.59-1.32-10.87-3.33-15.82-6.02c-4.95-2.69-9.01-6.43-12.17-11.21c-3.16-4.78-4.74-10.93-4.74-18.45
			c0-9.14,2.45-16.97,7.37-23.51c4.91-6.53,11.72-11.53,20.43-14.99c8.71-3.46,18.66-5.19,29.85-5.19c10.33,0,19.77,1.52,28.31,4.55
			c8.54,3.03,15.69,7.47,21.46,13.32c4.55,4.62,7.84,10.11,9.86,16.46c0.88,2.77-0.85,5.71-3.7,6.3l-25.17,5.18
			c-2.47,0.51-4.9-0.94-5.66-3.34c-0.61-1.93-1.39-3.79-2.36-5.57c-1.66-3.07-4.21-5.57-7.62-7.49c-3.42-1.92-8.03-2.88-13.83-2.88
			c-6.58,0-11.81,1.28-15.69,3.84c-3.89,2.56-5.83,6.07-5.83,10.51c0,3.25,1.09,5.89,3.27,7.94c2.18,2.05,5.17,3.7,8.97,4.93
			c3.8,1.24,8.09,2.29,12.87,3.14l14.35,2.43c7.34,1.2,14.33,3.27,20.95,6.21c6.62,2.95,12.02,7.15,16.21,12.62
			c4.18,5.47,6.28,12.64,6.28,21.52c0,9.82-2.67,18.11-8.01,24.85c-5.34,6.75-12.64,11.85-21.91,15.31
			C1453.82,955.88,1443.34,957.61,1431.64,957.61z"/>
	</g>
</g>
<g id="preto" class="st0">
	<path class="st2" d="M830.74,668.33L728.63,515.17c-2.33-3.49-2.48-8-0.4-11.65l213.51-373.64c2.96-5.18,8.47-8.38,14.44-8.38
		h173.84c17.02,0,27.69,18.39,19.25,33.17L949.92,503.52c-2.08,3.65-1.93,8.15,0.4,11.65l84.07,126.1
		c9.82,14.73-0.74,34.47-18.45,34.47H844.58C839.02,675.73,833.83,672.96,830.74,668.33z"/>
	<circle class="st2" cx="1112.79" cy="509.47" r="83.13"/>
	<g class="st2">
		<path d="M427.67,946.11V777.97c0-4.51,3.66-8.17,8.17-8.17h115.68c2.71,0,4.9,2.19,4.9,4.9v23.63c0,2.71-2.19,4.9-4.9,4.9h-84.26
			v39.71h73.24c2.71,0,4.9,2.19,4.9,4.9v23.63c0,2.71-2.19,4.9-4.9,4.9h-73.24v69.72c0,4.51-3.66,8.17-8.17,8.17h-23.25
			C431.32,954.28,427.67,950.62,427.67,946.11z"/>
		<path d="M600.1,799.39c-7.6,0-13.71-2.31-18.32-6.92c-4.61-4.61-6.92-10.72-6.92-18.32c0-7.69,2.31-13.81,6.92-18.38
			c4.61-4.57,10.72-6.85,18.32-6.85c7.69,0,13.81,2.29,18.38,6.85c4.57,4.57,6.85,10.7,6.85,18.38c0,7.6-2.29,13.71-6.85,18.32
			C613.91,797.09,607.78,799.39,600.1,799.39z M581.01,949.27V820.92c0-2.76,2.24-5,5-5h28.17c2.76,0,5,2.24,5,5v128.35
			c0,2.76-2.24,5-5,5h-28.17C583.25,954.28,581.01,952.04,581.01,949.27z"/>
		<path d="M695.28,954.28c-10.25,0-18.13-2.5-23.64-7.49c-5.51-5-8.26-12.19-8.26-21.59v-81.35h-14.83c-2.71,0-4.9-2.19-4.9-4.9
			v-18.12c0-2.71,2.19-4.9,4.9-4.9h14.83v-23.3c0-2.26,1.55-4.23,3.75-4.76l28.37-6.86c3.08-0.75,6.05,1.59,6.05,4.76v30.16h20.72
			c2.71,0,4.9,2.19,4.9,4.9v18.12c0,2.71-2.19,4.9-4.9,4.9h-20.72v75.33c0,2.82,0.4,4.72,1.22,5.7c0.81,0.98,2.54,1.47,5.19,1.47
			h16.24c2.71,0,4.9,2.19,4.9,4.9v18.12c0,2.71-2.19,4.9-4.9,4.9H695.28z"/>
		<path d="M755.88,949.29v-174.5c0-2.75,2.23-4.98,4.98-4.98h29.62c2.75,0,4.98,2.23,4.98,4.98v141.07c0,2.75,2.23,4.98,4.98,4.98
			h78.94c2.75,0,4.98,2.23,4.98,4.98v23.47c0,2.75-2.23,4.98-4.98,4.98H760.86C758.11,954.28,755.88,952.04,755.88,949.29z"/>
		<path d="M963.02,957.61c-13.92,0-26.2-3.07-36.83-9.22c-10.63-6.15-18.94-14.67-24.92-25.56c-5.98-10.89-8.97-23.46-8.97-37.73
			c0-14.35,2.99-26.97,8.97-37.85c5.98-10.89,14.28-19.39,24.92-25.49c10.63-6.11,22.91-9.16,36.83-9.16
			c14.01,0,26.32,3.05,36.96,9.16c10.63,6.11,18.94,14.6,24.92,25.49c5.98,10.89,8.97,23.51,8.97,37.85
			c0,14.35-2.99,26.97-8.97,37.86c-5.98,10.89-14.31,19.39-24.98,25.49C989.24,954.55,976.94,957.61,963.02,957.61z M963.15,929.55
			c9.48,0,16.97-3.99,22.48-11.98c5.51-7.98,8.26-18.81,8.26-32.48c0-13.75-2.76-24.6-8.26-32.54
			c-5.51-7.94-13.05-11.91-22.61-11.91c-9.48,0-16.97,3.97-22.48,11.91c-5.51,7.94-8.26,18.79-8.26,32.54
			c0,13.75,2.75,24.6,8.26,32.54C946.05,925.58,953.59,929.55,963.15,929.55z"/>
		<path d="M1125.98,957.61c-14.52,0-27.1-2.95-37.73-8.84c-10.63-5.89-18.81-14.26-24.53-25.11c-5.72-10.84-8.58-23.74-8.58-38.69
			c0-14.86,2.86-27.71,8.58-38.56c5.72-10.84,13.88-19.19,24.47-25.05c10.59-5.85,23.14-8.77,37.66-8.77
			c10.42,0,20.11,1.88,29.08,5.64c8.97,3.76,16.59,9.33,22.87,16.72c5.23,6.16,9.09,13.55,11.56,22.17c0.82,2.86-1.03,5.8-3.94,6.42
			l-25.87,5.5c-2.67,0.57-5.37-1.01-6.08-3.65c-1.99-7.5-5.05-13.29-9.18-17.38c-4.95-4.91-11.19-7.37-18.7-7.37
			c-10.33,0-18,4.1-22.99,12.3c-5,8.2-7.49,19.05-7.49,32.54c0,13.41,2.48,24.11,7.43,32.09c4.95,7.99,12.68,11.98,23.19,11.98
			c7.26,0,13.39-2.2,18.38-6.6c4.16-3.66,7.39-8.95,9.69-15.84c0.81-2.45,3.26-3.96,5.79-3.49l25.04,4.68
			c3.05,0.57,4.88,3.66,4.01,6.65c-1.75,6.03-4.24,11.39-7.45,16.08c-4.19,6.11-9.2,11.1-15.05,14.99
			c-5.85,3.89-12.19,6.79-19.02,8.71C1140.28,956.64,1133.23,957.61,1125.98,957.61z"/>
		<path d="M1260.36,957.61c-10.68,0-19.45-2.43-26.33-7.3c-6.88-4.87-11.98-11.61-15.31-20.24c-3.33-8.62-5-18.58-5-29.85v-79.32
			c0-2.75,2.23-4.97,4.97-4.97h28.23c2.75,0,4.97,2.23,4.97,4.97v74.84c0,11.19,1.92,19.49,5.76,24.92
			c3.84,5.42,9.82,8.13,17.93,8.13c4.78,0,9.33-1.26,13.64-3.78c4.31-2.52,7.84-6.73,10.57-12.62s4.1-13.92,4.1-24.08v-67.41
			c0-2.75,2.23-4.97,4.97-4.97h28.23c2.75,0,4.97,2.23,4.97,4.97V949.3c0,2.75-2.23,4.97-4.97,4.97h-26.95
			c-2.75,0-4.97-2.23-4.97-4.97v-27.44l0.66,4.15c0.16,0.97,0.03,1.98-0.39,2.87c-4.07,8.74-9.78,15.64-17.12,20.72
			C1280.62,954.94,1271.29,957.61,1260.36,957.61z"/>
		<path d="M1431.64,957.61c-10.42,0-20.24-1.52-29.46-4.55c-9.22-3.03-17-7.75-23.32-14.16c-5.27-5.34-8.93-12.01-11-20.02
			c-0.69-2.69,1.1-5.39,3.82-5.93l25.01-4.97c2.6-0.52,5.13,1.14,5.73,3.73c1.27,5.48,3.77,9.78,7.5,12.9
			c4.74,3.97,11.51,5.96,20.3,5.96c8.45,0,14.73-1.69,18.83-5.06c4.1-3.37,6.15-7.32,6.15-11.85c0-4.01-1.6-7.47-4.8-10.38
			c-3.2-2.9-8.73-4.95-16.59-6.15l-12.56-2.05c-4.95-0.77-10.23-1.81-15.82-3.14c-5.59-1.32-10.87-3.33-15.82-6.02
			c-4.95-2.69-9.01-6.43-12.17-11.21c-3.16-4.78-4.74-10.93-4.74-18.45c0-9.14,2.45-16.97,7.37-23.51
			c4.91-6.53,11.72-11.53,20.43-14.99c8.71-3.46,18.66-5.19,29.85-5.19c10.33,0,19.77,1.52,28.31,4.55
			c8.54,3.03,15.69,7.47,21.46,13.32c4.55,4.62,7.84,10.11,9.86,16.46c0.88,2.77-0.85,5.71-3.7,6.3l-25.17,5.18
			c-2.47,0.51-4.9-0.94-5.66-3.34c-0.61-1.93-1.39-3.79-2.36-5.57c-1.66-3.07-4.21-5.57-7.62-7.49c-3.42-1.92-8.03-2.88-13.83-2.88
			c-6.58,0-11.81,1.28-15.69,3.84c-3.89,2.56-5.83,6.07-5.83,10.51c0,3.25,1.09,5.89,3.27,7.94c2.18,2.05,5.17,3.7,8.97,4.93
			c3.8,1.24,8.09,2.29,12.87,3.14l14.35,2.43c7.34,1.2,14.33,3.27,20.95,6.21c6.62,2.95,12.02,7.15,16.21,12.62
			c4.18,5.47,6.28,12.64,6.28,21.52c0,9.82-2.67,18.11-8.01,24.85c-5.34,6.75-12.64,11.85-21.91,15.31
			C1453.82,955.88,1443.34,957.61,1431.64,957.61z"/>
	</g>
</g>
<g id="branco" class="st0">
	<path class="st6" d="M830.74,668.33L728.63,515.17c-2.33-3.49-2.48-8-0.4-11.65l213.51-373.64c2.96-5.18,8.47-8.38,14.44-8.38
		h173.84c17.02,0,27.69,18.39,19.25,33.17L949.92,503.52c-2.08,3.65-1.93,8.15,0.4,11.65l84.07,126.1
		c9.82,14.73-0.74,34.47-18.45,34.47H844.58C839.02,675.73,833.83,672.96,830.74,668.33z"/>
	<circle class="st6" cx="1112.79" cy="509.47" r="83.13"/>
	<g class="st2">
		<path class="st7" d="M427.67,946.11V777.97c0-4.51,3.66-8.17,8.17-8.17h115.68c2.71,0,4.9,2.19,4.9,4.9v23.63
			c0,2.71-2.19,4.9-4.9,4.9h-84.26v39.71h73.24c2.71,0,4.9,2.19,4.9,4.9v23.63c0,2.71-2.19,4.9-4.9,4.9h-73.24v69.72
			c0,4.51-3.66,8.17-8.17,8.17h-23.25C431.32,954.28,427.67,950.62,427.67,946.11z"/>
		<path class="st7" d="M600.1,799.39c-7.6,0-13.71-2.31-18.32-6.92c-4.61-4.61-6.92-10.72-6.92-18.32c0-7.69,2.31-13.81,6.92-18.38
			c4.61-4.57,10.72-6.85,18.32-6.85c7.69,0,13.81,2.29,18.38,6.85c4.57,4.57,6.85,10.7,6.85,18.38c0,7.6-2.29,13.71-6.85,18.32
			C613.91,797.09,607.78,799.39,600.1,799.39z M581.01,949.27V820.92c0-2.76,2.24-5,5-5h28.17c2.76,0,5,2.24,5,5v128.35
			c0,2.76-2.24,5-5,5h-28.17C583.25,954.28,581.01,952.04,581.01,949.27z"/>
		<path class="st7" d="M695.28,954.28c-10.25,0-18.13-2.5-23.64-7.49c-5.51-5-8.26-12.19-8.26-21.59v-81.35h-14.83
			c-2.71,0-4.9-2.19-4.9-4.9v-18.12c0-2.71,2.19-4.9,4.9-4.9h14.83v-23.3c0-2.26,1.55-4.23,3.75-4.76l28.37-6.86
			c3.08-0.75,6.05,1.59,6.05,4.76v30.16h20.72c2.71,0,4.9,2.19,4.9,4.9v18.12c0,2.71-2.19,4.9-4.9,4.9h-20.72v75.33
			c0,2.82,0.4,4.72,1.22,5.7c0.81,0.98,2.54,1.47,5.19,1.47h16.24c2.71,0,4.9,2.19,4.9,4.9v18.12c0,2.71-2.19,4.9-4.9,4.9H695.28z"
			/>
		<path class="st7" d="M755.88,949.29v-174.5c0-2.75,2.23-4.98,4.98-4.98h29.62c2.75,0,4.98,2.23,4.98,4.98v141.07
			c0,2.75,2.23,4.98,4.98,4.98h78.94c2.75,0,4.98,2.23,4.98,4.98v23.47c0,2.75-2.23,4.98-4.98,4.98H760.86
			C758.11,954.28,755.88,952.04,755.88,949.29z"/>
		<path class="st7" d="M963.02,957.61c-13.92,0-26.2-3.07-36.83-9.22c-10.63-6.15-18.94-14.67-24.92-25.56
			c-5.98-10.89-8.97-23.46-8.97-37.73c0-14.35,2.99-26.97,8.97-37.85c5.98-10.89,14.28-19.39,24.92-25.49
			c10.63-6.11,22.91-9.16,36.83-9.16c14.01,0,26.32,3.05,36.96,9.16c10.63,6.11,18.94,14.6,24.92,25.49
			c5.98,10.89,8.97,23.51,8.97,37.85c0,14.35-2.99,26.97-8.97,37.86c-5.98,10.89-14.31,19.39-24.98,25.49
			C989.24,954.55,976.94,957.61,963.02,957.61z M963.15,929.55c9.48,0,16.97-3.99,22.48-11.98c5.51-7.98,8.26-18.81,8.26-32.48
			c0-13.75-2.76-24.6-8.26-32.54c-5.51-7.94-13.05-11.91-22.61-11.91c-9.48,0-16.97,3.97-22.48,11.91
			c-5.51,7.94-8.26,18.79-8.26,32.54c0,13.75,2.75,24.6,8.26,32.54C946.05,925.58,953.59,929.55,963.15,929.55z"/>
		<path class="st7" d="M1125.98,957.61c-14.52,0-27.1-2.95-37.73-8.84c-10.63-5.89-18.81-14.26-24.53-25.11
			c-5.72-10.84-8.58-23.74-8.58-38.69c0-14.86,2.86-27.71,8.58-38.56c5.72-10.84,13.88-19.19,24.47-25.05
			c10.59-5.85,23.14-8.77,37.66-8.77c10.42,0,20.11,1.88,29.08,5.64c8.97,3.76,16.59,9.33,22.87,16.72
			c5.23,6.16,9.09,13.55,11.56,22.17c0.82,2.86-1.03,5.8-3.94,6.42l-25.87,5.5c-2.67,0.57-5.37-1.01-6.08-3.65
			c-1.99-7.5-5.05-13.29-9.18-17.38c-4.95-4.91-11.19-7.37-18.7-7.37c-10.33,0-18,4.1-22.99,12.3c-5,8.2-7.49,19.05-7.49,32.54
			c0,13.41,2.48,24.11,7.43,32.09c4.95,7.99,12.68,11.98,23.19,11.98c7.26,0,13.39-2.2,18.38-6.6c4.16-3.66,7.39-8.95,9.69-15.84
			c0.81-2.45,3.26-3.96,5.79-3.49l25.04,4.68c3.05,0.57,4.88,3.66,4.01,6.65c-1.75,6.03-4.24,11.39-7.45,16.08
			c-4.19,6.11-9.2,11.1-15.05,14.99c-5.85,3.89-12.19,6.79-19.02,8.71C1140.28,956.64,1133.23,957.61,1125.98,957.61z"/>
		<path class="st7" d="M1260.36,957.61c-10.68,0-19.45-2.43-26.33-7.3c-6.88-4.87-11.98-11.61-15.31-20.24
			c-3.33-8.62-5-18.58-5-29.85v-79.32c0-2.75,2.23-4.97,4.97-4.97h28.23c2.75,0,4.97,2.23,4.97,4.97v74.84
			c0,11.19,1.92,19.49,5.76,24.92c3.84,5.42,9.82,8.13,17.93,8.13c4.78,0,9.33-1.26,13.64-3.78c4.31-2.52,7.84-6.73,10.57-12.62
			s4.1-13.92,4.1-24.08v-67.41c0-2.75,2.23-4.97,4.97-4.97h28.23c2.75,0,4.97,2.23,4.97,4.97V949.3c0,2.75-2.23,4.97-4.97,4.97
			h-26.95c-2.75,0-4.97-2.23-4.97-4.97v-27.44l0.66,4.15c0.16,0.97,0.03,1.98-0.39,2.87c-4.07,8.74-9.78,15.64-17.12,20.72
			C1280.62,954.94,1271.29,957.61,1260.36,957.61z"/>
		<path class="st7" d="M1431.64,957.61c-10.42,0-20.24-1.52-29.46-4.55c-9.22-3.03-17-7.75-23.32-14.16
			c-5.27-5.34-8.93-12.01-11-20.02c-0.69-2.69,1.1-5.39,3.82-5.93l25.01-4.97c2.6-0.52,5.13,1.14,5.73,3.73
			c1.27,5.48,3.77,9.78,7.5,12.9c4.74,3.97,11.51,5.96,20.3,5.96c8.45,0,14.73-1.69,18.83-5.06c4.1-3.37,6.15-7.32,6.15-11.85
			c0-4.01-1.6-7.47-4.8-10.38c-3.2-2.9-8.73-4.95-16.59-6.15l-12.56-2.05c-4.95-0.77-10.23-1.81-15.82-3.14
			c-5.59-1.32-10.87-3.33-15.82-6.02c-4.95-2.69-9.01-6.43-12.17-11.21c-3.16-4.78-4.74-10.93-4.74-18.45
			c0-9.14,2.45-16.97,7.37-23.51c4.91-6.53,11.72-11.53,20.43-14.99c8.71-3.46,18.66-5.19,29.85-5.19c10.33,0,19.77,1.52,28.31,4.55
			c8.54,3.03,15.69,7.47,21.46,13.32c4.55,4.62,7.84,10.11,9.86,16.46c0.88,2.77-0.85,5.71-3.7,6.3l-25.17,5.18
			c-2.47,0.51-4.9-0.94-5.66-3.34c-0.61-1.93-1.39-3.79-2.36-5.57c-1.66-3.07-4.21-5.57-7.62-7.49c-3.42-1.92-8.03-2.88-13.83-2.88
			c-6.58,0-11.81,1.28-15.69,3.84c-3.89,2.56-5.83,6.07-5.83,10.51c0,3.25,1.09,5.89,3.27,7.94c2.18,2.05,5.17,3.7,8.97,4.93
			c3.8,1.24,8.09,2.29,12.87,3.14l14.35,2.43c7.34,1.2,14.33,3.27,20.95,6.21c6.62,2.95,12.02,7.15,16.21,12.62
			c4.18,5.47,6.28,12.64,6.28,21.52c0,9.82-2.67,18.11-8.01,24.85c-5.34,6.75-12.64,11.85-21.91,15.31
			C1453.82,955.88,1443.34,957.61,1431.64,957.61z"/>
	</g>
</g>
<g id="verde" class="st0">
	<path class="st1" d="M830.74,668.33L728.63,515.17c-2.33-3.49-2.48-8-0.4-11.65l213.51-373.64c2.96-5.18,8.47-8.38,14.44-8.38
		h173.84c17.02,0,27.69,18.39,19.25,33.17L949.92,503.52c-2.08,3.65-1.93,8.15,0.4,11.65l84.07,126.1
		c9.82,14.73-0.74,34.47-18.45,34.47H844.58C839.02,675.73,833.83,672.96,830.74,668.33z"/>
	<circle class="st1" cx="1112.79" cy="509.47" r="83.13"/>
	<g class="st2">
		<path class="st4" d="M427.67,946.11V777.97c0-4.51,3.66-8.17,8.17-8.17h115.68c2.71,0,4.9,2.19,4.9,4.9v23.63
			c0,2.71-2.19,4.9-4.9,4.9h-84.26v39.71h73.24c2.71,0,4.9,2.19,4.9,4.9v23.63c0,2.71-2.19,4.9-4.9,4.9h-73.24v69.72
			c0,4.51-3.66,8.17-8.17,8.17h-23.25C431.32,954.28,427.67,950.62,427.67,946.11z"/>
		<path class="st4" d="M600.1,799.39c-7.6,0-13.71-2.31-18.32-6.92c-4.61-4.61-6.92-10.72-6.92-18.32c0-7.69,2.31-13.81,6.92-18.38
			c4.61-4.57,10.72-6.85,18.32-6.85c7.69,0,13.81,2.29,18.38,6.85c4.57,4.57,6.85,10.7,6.85,18.38c0,7.6-2.29,13.71-6.85,18.32
			C613.91,797.09,607.78,799.39,600.1,799.39z M581.01,949.27V820.92c0-2.76,2.24-5,5-5h28.17c2.76,0,5,2.24,5,5v128.35
			c0,2.76-2.24,5-5,5h-28.17C583.25,954.28,581.01,952.04,581.01,949.27z"/>
		<path class="st4" d="M695.28,954.28c-10.25,0-18.13-2.5-23.64-7.49c-5.51-5-8.26-12.19-8.26-21.59v-81.35h-14.83
			c-2.71,0-4.9-2.19-4.9-4.9v-18.12c0-2.71,2.19-4.9,4.9-4.9h14.83v-23.3c0-2.26,1.55-4.23,3.75-4.76l28.37-6.86
			c3.08-0.75,6.05,1.59,6.05,4.76v30.16h20.72c2.71,0,4.9,2.19,4.9,4.9v18.12c0,2.71-2.19,4.9-4.9,4.9h-20.72v75.33
			c0,2.82,0.4,4.72,1.22,5.7c0.81,0.98,2.54,1.47,5.19,1.47h16.24c2.71,0,4.9,2.19,4.9,4.9v18.12c0,2.71-2.19,4.9-4.9,4.9H695.28z"
			/>
		<path class="st4" d="M755.88,949.29v-174.5c0-2.75,2.23-4.98,4.98-4.98h29.62c2.75,0,4.98,2.23,4.98,4.98v141.07
			c0,2.75,2.23,4.98,4.98,4.98h78.94c2.75,0,4.98,2.23,4.98,4.98v23.47c0,2.75-2.23,4.98-4.98,4.98H760.86
			C758.11,954.28,755.88,952.04,755.88,949.29z"/>
		<path class="st4" d="M963.02,957.61c-13.92,0-26.2-3.07-36.83-9.22c-10.63-6.15-18.94-14.67-24.92-25.56
			c-5.98-10.89-8.97-23.46-8.97-37.73c0-14.35,2.99-26.97,8.97-37.85c5.98-10.89,14.28-19.39,24.92-25.49
			c10.63-6.11,22.91-9.16,36.83-9.16c14.01,0,26.32,3.05,36.96,9.16c10.63,6.11,18.94,14.6,24.92,25.49
			c5.98,10.89,8.97,23.51,8.97,37.85c0,14.35-2.99,26.97-8.97,37.86c-5.98,10.89-14.31,19.39-24.98,25.49
			C989.24,954.55,976.94,957.61,963.02,957.61z M963.15,929.55c9.48,0,16.97-3.99,22.48-11.98c5.51-7.98,8.26-18.81,8.26-32.48
			c0-13.75-2.76-24.6-8.26-32.54c-5.51-7.94-13.05-11.91-22.61-11.91c-9.48,0-16.97,3.97-22.48,11.91
			c-5.51,7.94-8.26,18.79-8.26,32.54c0,13.75,2.75,24.6,8.26,32.54C946.05,925.58,953.59,929.55,963.15,929.55z"/>
		<path class="st4" d="M1125.98,957.61c-14.52,0-27.1-2.95-37.73-8.84c-10.63-5.89-18.81-14.26-24.53-25.11
			c-5.72-10.84-8.58-23.74-8.58-38.69c0-14.86,2.86-27.71,8.58-38.56c5.72-10.84,13.88-19.19,24.47-25.05
			c10.59-5.85,23.14-8.77,37.66-8.77c10.42,0,20.11,1.88,29.08,5.64c8.97,3.76,16.59,9.33,22.87,16.72
			c5.23,6.16,9.09,13.55,11.56,22.17c0.82,2.86-1.03,5.8-3.94,6.42l-25.87,5.5c-2.67,0.57-5.37-1.01-6.08-3.65
			c-1.99-7.5-5.05-13.29-9.18-17.38c-4.95-4.91-11.19-7.37-18.7-7.37c-10.33,0-18,4.1-22.99,12.3c-5,8.2-7.49,19.05-7.49,32.54
			c0,13.41,2.48,24.11,7.43,32.09c4.95,7.99,12.68,11.98,23.19,11.98c7.26,0,13.39-2.2,18.38-6.6c4.16-3.66,7.39-8.95,9.69-15.84
			c0.81-2.45,3.26-3.96,5.79-3.49l25.04,4.68c3.05,0.57,4.88,3.66,4.01,6.65c-1.75,6.03-4.24,11.39-7.45,16.08
			c-4.19,6.11-9.2,11.1-15.05,14.99c-5.85,3.89-12.19,6.79-19.02,8.71C1140.28,956.64,1133.23,957.61,1125.98,957.61z"/>
		<path class="st4" d="M1260.36,957.61c-10.68,0-19.45-2.43-26.33-7.3c-6.88-4.87-11.98-11.61-15.31-20.24
			c-3.33-8.62-5-18.58-5-29.85v-79.32c0-2.75,2.23-4.97,4.97-4.97h28.23c2.75,0,4.97,2.23,4.97,4.97v74.84
			c0,11.19,1.92,19.49,5.76,24.92c3.84,5.42,9.82,8.13,17.93,8.13c4.78,0,9.33-1.26,13.64-3.78c4.31-2.52,7.84-6.73,10.57-12.62
			s4.1-13.92,4.1-24.08v-67.41c0-2.75,2.23-4.97,4.97-4.97h28.23c2.75,0,4.97,2.23,4.97,4.97V949.3c0,2.75-2.23,4.97-4.97,4.97
			h-26.95c-2.75,0-4.97-2.23-4.97-4.97v-27.44l0.66,4.15c0.16,0.97,0.03,1.98-0.39,2.87c-4.07,8.74-9.78,15.64-17.12,20.72
			C1280.62,954.94,1271.29,957.61,1260.36,957.61z"/>
		<path class="st4" d="M1431.64,957.61c-10.42,0-20.24-1.52-29.46-4.55c-9.22-3.03-17-7.75-23.32-14.16
			c-5.27-5.34-8.93-12.01-11-20.02c-0.69-2.69,1.1-5.39,3.82-5.93l25.01-4.97c2.6-0.52,5.13,1.14,5.73,3.73
			c1.27,5.48,3.77,9.78,7.5,12.9c4.74,3.97,11.51,5.96,20.3,5.96c8.45,0,14.73-1.69,18.83-5.06c4.1-3.37,6.15-7.32,6.15-11.85
			c0-4.01-1.6-7.47-4.8-10.38c-3.2-2.9-8.73-4.95-16.59-6.15l-12.56-2.05c-4.95-0.77-10.23-1.81-15.82-3.14
			c-5.59-1.32-10.87-3.33-15.82-6.02c-4.95-2.69-9.01-6.43-12.17-11.21c-3.16-4.78-4.74-10.93-4.74-18.45
			c0-9.14,2.45-16.97,7.37-23.51c4.91-6.53,11.72-11.53,20.43-14.99c8.71-3.46,18.66-5.19,29.85-5.19c10.33,0,19.77,1.52,28.31,4.55
			c8.54,3.03,15.69,7.47,21.46,13.32c4.55,4.62,7.84,10.11,9.86,16.46c0.88,2.77-0.85,5.71-3.7,6.3l-25.17,5.18
			c-2.47,0.51-4.9-0.94-5.66-3.34c-0.61-1.93-1.39-3.79-2.36-5.57c-1.66-3.07-4.21-5.57-7.62-7.49c-3.42-1.92-8.03-2.88-13.83-2.88
			c-6.58,0-11.81,1.28-15.69,3.84c-3.89,2.56-5.83,6.07-5.83,10.51c0,3.25,1.09,5.89,3.27,7.94c2.18,2.05,5.17,3.7,8.97,4.93
			c3.8,1.24,8.09,2.29,12.87,3.14l14.35,2.43c7.34,1.2,14.33,3.27,20.95,6.21c6.62,2.95,12.02,7.15,16.21,12.62
			c4.18,5.47,6.28,12.64,6.28,21.52c0,9.82-2.67,18.11-8.01,24.85c-5.34,6.75-12.64,11.85-21.91,15.31
			C1453.82,955.88,1443.34,957.61,1431.64,957.61z"/>
	</g>
</g>
<g id="_x3D__x3D__x3D__x3D__x3D__x3D__x3D__x3D__x3D__x3D__x3D__x3D__x3D__x3D__x3D__x3D__x3D__cópia" class="st0">
</g>
<g id="verdde" class="st0">
	<g class="st2">
		<path class="st4" d="M1307.61,709.72c0,70.51-57.13,127.64-127.64,127.64c-70.47,0-127.64-57.13-127.64-127.64
			c0-70.47,57.17-127.6,127.64-127.6C1250.47,582.12,1307.61,639.25,1307.61,709.72z"/>
		<path class="st4" d="M1059.61,912.07c15.06,22.61-1.13,52.93-28.32,52.93H768.19c-8.53,0-16.53-4.28-21.26-11.38L590.18,718.47
			c-3.57-5.33-3.83-12.28-0.6-17.88l327.78-573.63c4.55-7.96,13-12.85,22.16-12.85h266.89c26.14,0,42.52,28.21,29.56,50.9
			L929.9,700.59c-3.19,5.6-2.93,12.55,0.64,17.88L1059.61,912.07z"/>
	</g>
</g>
<g id="preto_00000085963550490938558590000012134989396602055297_">
	<g>
		<path d="M1307.61,709.72c0,70.51-57.13,127.64-127.64,127.64c-70.47,0-127.64-57.13-127.64-127.64
			c0-70.47,57.17-127.6,127.64-127.6C1250.47,582.12,1307.61,639.25,1307.61,709.72z"/>
		<path d="M1059.61,912.07c15.06,22.61-1.13,52.93-28.32,52.93H768.19c-8.53,0-16.53-4.28-21.26-11.38L590.18,718.47
			c-3.57-5.33-3.83-12.28-0.6-17.88l327.78-573.63c4.55-7.96,13-12.85,22.16-12.85h266.89c26.14,0,42.52,28.21,29.56,50.9
			L929.9,700.59c-3.19,5.6-2.93,12.55,0.64,17.88L1059.61,912.07z"/>
	</g>
</g>
<g id="branco_00000049935652235058921480000013557190168368415104_" class="st0">
	<g class="st2">
		<path class="st7" d="M1307.61,709.72c0,70.51-57.13,127.64-127.64,127.64c-70.47,0-127.64-57.13-127.64-127.64
			c0-70.47,57.17-127.6,127.64-127.6C1250.47,582.12,1307.61,639.25,1307.61,709.72z"/>
		<path class="st7" d="M1059.61,912.07c15.06,22.61-1.13,52.93-28.32,52.93H768.19c-8.53,0-16.53-4.28-21.26-11.38L590.18,718.47
			c-3.57-5.33-3.83-12.28-0.6-17.88l327.78-573.63c4.55-7.96,13-12.85,22.16-12.85h266.89c26.14,0,42.52,28.21,29.56,50.9
			L929.9,700.59c-3.19,5.6-2.93,12.55,0.64,17.88L1059.61,912.07z"/>
	</g>
</g>
</svg>
